<?xml version="1.0" encoding="UTF-8" standalone="no"?>
<svg
   xmlns:dc="http://purl.org/dc/elements/1.1/"
   xmlns:cc="http://creativecommons.org/ns#"
   xmlns:rdf="http://www.w3.org/1999/02/22-rdf-syntax-ns#"
   xmlns:svg="http://www.w3.org/2000/svg"
   xmlns="http://www.w3.org/2000/svg"
   id="svg1913"
   version="1.1"
   viewBox="0 0 148 105"
   height="105mm"
   width="148mm">
  <defs
     id="defs1907" />
  <metadata
     id="metadata1910">
    <rdf:RDF>
      <cc:Work
         rdf:about="">
        <dc:format>image/svg+xml</dc:format>
        <dc:type
           rdf:resource="http://purl.org/dc/dcmitype/StillImage" />
        <dc:title></dc:title>
      </cc:Work>
    </rdf:RDF>
  </metadata>
  <g
     transform="translate(0,-192)"
     id="layer1">
    <g
       transform="matrix(-0.26458333,0,0,0.26458333,148.62587,216.41922)"
       id="g2464">
	<path
   style="fill:#000000"
   class="stblack"
   d="M 515.38384,37 H 75.2 C 60.3,37 41.9,18.7 38.7,10.9 37.2,7.2 33.6,4.9 29.7,4.9 29.1,4.9 28.4,5 27.8,5.1 23.3,6 20,10 20,14.6 c 0,2.1 0.1,4.1 0.1,6 -0.1,0.5 -0.1,1.1 -0.1,1.6 0,31.3 11,43.6 19.1,52.6 4.8,5.3 6.7,7.7 6.7,12.2 v 76 c 0,16.2 13.2,29.3 29.3,29.3 h 440.18384 c 16.2,0 29.3,-13.2 29.3,-29.3 V 66.3 c 0.1,-16.2 -13.1,-29.3 -29.2,-29.3 z"
   id="path2460" />

	<path
   style="fill:#ffffff"
   class="st0"
   d="m 534.98384,155.4 c 0,10.8 -8.8,19.6 -19.6,19.6 H 75.2 C 64.4,175 55.6,166.2 55.6,155.4 V 79.5 C 55.6,58.5 29.8,60.8 29.8,14.7 34.4,25.8 56,46.8 75.3,46.8 h 440.18384 c 10.8,0 19.6,8.8 19.6,19.6 z"
   id="path2462" />

</g>
    <text
       id="text2479"
       y="254.49802"
       x="15.15303"
       style="font-style:normal;font-variant:normal;font-weight:bold;font-stretch:normal;font-size:22.66773415px;line-height:1.25;font-family:YasashisaGothicBoldV2;-inkscape-font-specification:'YasashisaGothicBoldV2, Bold';font-variant-ligatures:normal;font-variant-caps:normal;font-variant-numeric:normal;font-feature-settings:normal;text-align:start;letter-spacing:0px;word-spacing:0px;writing-mode:lr-tb;text-anchor:start;fill:#000000;fill-opacity:1;stroke:none;stroke-width:0.85004759"
       xml:space="preserve"><tspan
         style="font-style:normal;font-variant:normal;font-weight:bold;font-stretch:normal;font-size:22.66773415px;font-family:YasashisaGothicBoldV2;-inkscape-font-specification:'YasashisaGothicBoldV2, Bold';font-variant-ligatures:normal;font-variant-caps:normal;font-variant-numeric:normal;font-feature-settings:normal;text-align:start;writing-mode:lr-tb;text-anchor:start;stroke-width:0.85004759"
         y="254.49802"
         x="15.15303"
         id="tspan2477">公式サイト</tspan></text>
  </g>
  <style
     type="text/css"
     id="style2458">
	.stblack{fill:#000000;}
	.st0{fill:#FFFFFF;}
</style>
</svg>
