<?xml version="1.0" encoding="UTF-8" standalone="no"?>
<svg
   xmlns:dc="http://purl.org/dc/elements/1.1/"
   xmlns:cc="http://creativecommons.org/ns#"
   xmlns:rdf="http://www.w3.org/1999/02/22-rdf-syntax-ns#"
   xmlns:svg="http://www.w3.org/2000/svg"
   xmlns="http://www.w3.org/2000/svg"
   id="svg3505"
   version="1.1"
   viewBox="0 0 125 88"
   height="88mm"
   width="125mm">
  <defs
     id="defs3499" />
  <metadata
     id="metadata3502">
    <rdf:RDF>
      <cc:Work
         rdf:about="">
        <dc:format>image/svg+xml</dc:format>
        <dc:type
           rdf:resource="http://purl.org/dc/dcmitype/StillImage" />
        <dc:title></dc:title>
      </cc:Work>
    </rdf:RDF>
  </metadata>
  <g
     transform="translate(0,-209)"
     id="layer1">
    <path
       id="path2193"
       style="fill:#ffffff;fill-opacity:1;fill-rule:nonzero;stroke:none;stroke-width:0.77138036"
       d="m 35.140846,265.69446 c 0.8918,2.38591 0.012,6.2143 -2.4746,7.575 -0.7922,0.4374 -1.7903,0.145 -2.2269,-0.648 -0.4358,-0.7945 -0.145,-1.79109 0.6487,-2.2269 0.8594,-0.4721 1.4001,-2.4291 0.9812,-3.5499 -0.685,-1.8251 -2.5401,-2.9537 -4.416201,-2.6844 -0.8307,0.1226 -1.6282,0.4713 -2.3673,1.03521 0,0 0,0 0,0 -0.9603,0.74209 -1.7,1.78259 -2.075,2.92509 -0.6556,2.00401 -0.317,4.4007 0.9072,6.4117 1.6577,2.7337 4.7856,4.4894 7.986801,4.4894 0.024,0 0.048,0 0.071,0 3.2221,-0.026 6.3569,-1.8397 7.9869,-4.6198 l 1.8622,-3.1765 1.1154,3.5082 c 0.9241,2.9066 4.2463,5.1821 7.5626,5.1821 4.0922,0 7.1861,-2.6767 7.6998,-6.6608 l 0.4104,-3.1843 2.3389,2.19841 c 2.2786,2.1414 7.2718,2.31799 10.9042,0.38799 2.4514,-1.2989 5.0957,-3.4465 6.134,-9.53499 l 0.2539,-1.4888 1.5049,0.1304 c 5.2554,0.4543 12.4894,-2.15911 15.4746,-5.59721 l 0.159,-0.1589 c 2.0998,-1.8367 3.6517,-4.842 4.1508,-7.6491 -0.8501,0.5307 -1.8004,0.9056 -2.7962,0.9975 -2.4923,0.2244 -5.4823,-1.2011 -7.447,-3.5399 -0.4929,-0.5824 -3.7126,-3.428 -6.0839,-1.947 l -1.9731,1.2327 -0.4975,-2.2733 c -1.5636,-7.1406 -4.1925,-11.2081 -8.2732,-12.8003 -2.918,-1.1331 -6.0961,-1.1192 -8.7142,0.041 -1.0529,0.459 -2.038,1.1394 -2.8588,1.9732 -1.2589,1.2589 -2.1143,2.8371 -2.4183,4.4525 -0.5345,2.8702 0.6496,5.9465 2.8171,7.3103 1.9578,1.2288 3.7197,1.5736 5.0934,0.9974 1.2374,-0.5184 2.0141,-1.7271 2.2131,-2.6304 0.257,-1.1617 -0.3223,-2.0581 -0.5838,-2.389 -0.4675,-0.5932 -0.9581,-0.7922 -1.1232,-0.7953 -0.9056,-0.015 -1.6261,-0.7636 -1.6091,-1.6692 0.015,-0.9057 0.7783,-1.6145 1.6692,-1.6099 1.2891,0.024 2.649,0.7876 3.6395,2.0441 1.1632,1.4765 1.6044,3.3448 1.2102,5.1259 -0.3578,1.6299 -1.6599,3.9062 -4.1477,4.9491 -1.673,0.7012 -4.4393,1.0553 -8.1064,-1.245 -3.3147,-2.0865 -5.0803,-6.4826 -4.2966,-10.6913 0.3302,-1.7518 1.0792,-3.4056 2.1869,-4.8635 -3.3416,-2.534 -9.4757,-3.3432 -14.6123,-0.5261 -3.6216,1.9901 -5.5979,5.9126 -5.2847,10.4908 l 0.1295,1.8906 -1.889,-0.1428 c -4.2696,-0.3224 -9.012901,2.5371 -11.050001,6.6516 -1.5868,3.212 -1.5042,7.83031 0.138,12.1485 0.685,-0.3062 1.397,-0.523 2.1182,-0.6287 3.387201,-0.4913 6.738801,1.5197 7.961501,4.7795" />
  </g>
</svg>
