<?xml version="1.0" encoding="UTF-8" standalone="no"?>
<svg
   xmlns:dc="http://purl.org/dc/elements/1.1/"
   xmlns:cc="http://creativecommons.org/ns#"
   xmlns:rdf="http://www.w3.org/1999/02/22-rdf-syntax-ns#"
   xmlns:svg="http://www.w3.org/2000/svg"
   xmlns="http://www.w3.org/2000/svg"
   id="svg3505"
   version="1.1"
   viewBox="0 0 125 88"
   height="88mm"
   width="125mm">
  <defs
     id="defs3499" />
  <metadata
     id="metadata3502">
    <rdf:RDF>
      <cc:Work
         rdf:about="">
        <dc:format>image/svg+xml</dc:format>
        <dc:type
           rdf:resource="http://purl.org/dc/dcmitype/StillImage" />
        <dc:title></dc:title>
      </cc:Work>
    </rdf:RDF>
  </metadata>
  <g
     transform="translate(0,-209)"
     id="layer1">
    <path
       id="path2183"
       style="fill:#ffffff;fill-opacity:1;fill-rule:nonzero;stroke:none;stroke-width:0.77138036"
       d="m 91.247774,276.63976 c -0.705,4.5179 -3.7057,6.7264 -6.0599,7.2448 -4.3722,0.9658 -7.5072,0.2429 -10.8232,-2.4947 l -2.1684,-1.7896 -0.4907,2.7692 c -0.8477,4.7926 -5.8386,8.5061 -10.6758,7.9368 -2.6543,-0.3163 -4.7417,-1.0105 -6.3207,-2.1074 4.6275,-3.5669 7.2286,-8.3965 7.0288,-13.24151 -0.2885,-7.07359 -6.2752,-13.23379 -13.0718,-13.44989 h -0.058 -0.059 c -6.0716,0.2392 -9.2721,4.0946 -9.7496,7.8095 -0.4828,3.7489 1.67321,7.1252 5.2409,8.2106 0.87001,0.263 1.7826,-0.2253 2.0464,-1.0915 0.2638,-0.867 -0.2253,-1.7827 -1.0915,-2.0465 -2.5163,-0.76521 -3.158,-2.9852 -2.9428,-4.6545 0.2785,-2.1645 2.1652,-4.7517 6.5667,-4.9477 5.0341,0.1953 9.6253,4.9948 9.842,10.3042 0.1753,4.2457 -2.5431,8.5739 -7.271,11.5784 -0.5137,0.3294 -1.02739,0.6279 -1.5366,0.8932 -3.8453,2.0033 -12.821,3.0941 -19.269,-7.119 l -0.8347,-1.3222 -1.3607,0.7706 c -1.2874,0.7282 -3.9471,1.0121 -6.9933,0 -2.0704,-0.6865 -5.8386,-2.5054 -7.8141,-6.984 -1.9076,-4.3128 -2.0981,-9.0167 -0.5099,-12.5859 1.316,-2.9567 3.7597,-5.0402 7.2657,-6.1911 l 1.9947,-0.6541 -1.1192,-1.77721 c -4.3815,-6.95639 -4.1732,-14.70649 0.5577,-20.73019 4.2263,-5.3765 13.8054,-8.2892 20.7987,-3.8692 l 1.9277,1.2188 0.5415,-2.2162 c 0.7491,-3.067 3.3139,-6.2289 6.5352,-8.0563 2.338,-1.3268 6.1054,-2.6034 10.8039,-1.1679 5.9126,2.1668 11.023,7.4778 9.13541,14.4796 -0.654,2.4291 -2.58711,5.5508 -5.28391,6.6632 -2.0179,0.8323 -4.3213,0.5122 -6.8506,-0.9527 -1.1602,-0.6719 -2.47779,-2.5633 -2.5841,-4.447 -0.087,-1.5674 0.644,-2.9366 2.1752,-4.0706 0.7274,-0.5392 0.8801,-1.5658 0.341,-2.2941 -0.5393,-0.7274 -1.5643,-0.8809 -2.2941,-0.3417 -3.0817,2.2825 -3.6024,5.0071 -3.4966,6.8908 0.1782,3.1619 2.2546,5.9658 4.2147,7.1005 4.30521,2.4939 7.67611,2.001 9.7456,1.1471 3.61321,-1.4911 5.8996,-5.0148 6.9139,-7.9291 3.4134,-0.7752 6.6262,0.9195 8.7822,2.551 2.5572,1.9362 4.20641,6.07 4.01191,10.0534 l -0.1059,2.156 2.1052,-0.47751 c 3.1526,-0.7127 6.58529,0.013 9.17939,1.9455 2.594106,1.9338 4.272696,5.01861 4.488706,8.25071 0.059,0.8979 0,1.8505 -0.067,2.8587 -0.1196,1.85439 -0.24301,3.77209 0.35249,5.7005 1.51341,4.889 6.27751,7.9313 11.259,8.8825 -2.49539,1.4587 -5.55309,2.6712 -8.98269,2.8648 -4.8782,0.2878 -9.499596,-0.634 -11.241296,-2.2315 l -2.2563,-2.0681 z" />
  </g>
</svg>
