<?xml version="1.0" encoding="UTF-8" standalone="no"?>
<svg
   xmlns:dc="http://purl.org/dc/elements/1.1/"
   xmlns:cc="http://creativecommons.org/ns#"
   xmlns:rdf="http://www.w3.org/1999/02/22-rdf-syntax-ns#"
   xmlns:svg="http://www.w3.org/2000/svg"
   xmlns="http://www.w3.org/2000/svg"
   id="svg3505"
   version="1.1"
   viewBox="0 0 125 88"
   height="88mm"
   width="125mm">
  <defs
     id="defs3499" />
  <metadata
     id="metadata3502">
    <rdf:RDF>
      <cc:Work
         rdf:about="">
        <dc:format>image/svg+xml</dc:format>
        <dc:type
           rdf:resource="http://purl.org/dc/dcmitype/StillImage" />
        <dc:title></dc:title>
      </cc:Work>
    </rdf:RDF>
  </metadata>
  <g
     transform="translate(0,-209)"
     id="layer1">
    <path
       id="path2189"
       style="fill:#ffffff;fill-opacity:1;fill-rule:nonzero;stroke:none;stroke-width:0.77138036"
       d="m 122.79884,265.07063 c -0.2662,1.95699 -1.1271,3.9803 -2.4561,5.6226 -1.6392,2.0264 -3.772,3.20509 -5.8516,3.2336 -0.9844,0.017 -2.271,-0.148 -3.6295,-0.32011 -2.7985,-0.35479 -5.9704,-0.75669 -8.2923,0.20601 -2.1097,0.8763 -3.707998,2.8472 -5.253798,4.754 -0.8647,1.06759 -1.6817,2.075 -2.4747,2.7384 -2.2,1.8429 -5.5701,2.362 -9.2465,1.4247 -3.0731,-0.7829 -5.8285,-2.5416 -6.8375,-4.3066 0.6256,-2.2439 2.1314,-9.5142 -2.733,-14.7835 -2.7323,-2.96361 -6.4811,-4.2835 -10.0341,-3.52291 -3.0423,0.65031 -5.4391,2.7677 -6.4101,5.6643 -0.736,2.1892 -0.2925,4.49941 1.2149,6.3392 1.4409,1.75721 3.6146,2.73611 5.5531,2.4892 0.8978,-0.11409 1.5335,-0.93569 1.4202,-1.83349 -0.1153,-0.8995 -0.9334,-1.5343 -1.8344,-1.4202 -0.8169,0.10409 -1.8845,-0.4373 -2.6018,-1.31441 -0.4567,-0.55689 -1.1471,-1.71479 -0.6419,-3.21659 0.6079,-1.81361 2.0603,-3.0887 3.9857,-3.5006 2.4052,-0.5153 4.9979,0.4343 6.9371,2.53939 4.3459,4.70701 1.8659,12.08291 1.8404,12.15701 -5.3e-4,5.2e-4 -5.3e-4,0.001 -5.3e-4,0 h -5.3e-4 c -2.0813,6.0414 -6.2521,7.8349 -9.3846,8.2746 -3.3386,0.4659 -9.6747,-0.56241 -12.6723,-4.2341 l -1.6854,-2.0635 -1.0831,2.4345 c -2.6929,6.0515 -10.1406,9.7873 -16.5915,8.3309 -6.459603,-1.4587 -11.574704,-8.0308 -11.403404,-14.6493 l 0.058,-2.22081 -2.139101,0.5994 c -6.959438,1.95231 -15.2386381,-2.56409 -17.3684381,-9.4718 -2.19609998,-7.09819 1.279,-14.19109 8.0857001,-16.50059 l 1.2557,-0.4258 -0.1543,-1.3175 c -0.4543,-3.8816 0.9581,-7.4068 3.9749,-9.9269 3.2336,-2.7006 7.666,-3.6402 11.5607,-2.453 1.083,0.3278 2.133603,0.8169 3.124103,1.454 5.1443,3.3262 7.6335,10.0712 5.5462,15.0312 -1.8414,4.3783 -5.5647,6.4402 -9.484103,5.2531 -2.1182,-0.6441 -3.2074,-2.3905 -3.5191,-3.81061 -0.3124,-1.42399 0.022,-2.73769 0.8949,-3.516 0.6765,-0.6017 0.7358,-1.6392 0.1341,-2.31489 -0.6039,-0.6765 -1.6391,-0.7359 -2.3156,-0.1343 -1.7711,1.57829 -2.4877,4.0706 -1.9169,6.66859 0.6519,2.96901 2.8633,5.3619 5.7707,6.24591 5.546303,1.6816 10.960503,-1.1787 13.459103,-7.1199 2.534,-6.0198 -0.07,-13.9997 -5.8039,-18.3565 1.1354,-3.5414 4.3135,-7.0064 7.7717,-8.3324 3.7388,-1.4309 8.2398,-0.82 11.4696,1.5558 l 2.4051,1.7704 0.203,-2.9799 c 0.312,-4.6046 3.932,-8.9058 8.4192,-10.0043 3.9772,-0.9681 8.5129,0.6811 11.5668,4.1284 -2.0425,4.6106 -1.1408,10.0203 2.295,12.9646 1.6005,1.3708 3.4913,2.0804 5.3572,2.0804 1.1146,0 2.2208,-0.253 3.2506,-0.7706 2.8803,-1.4455 4.5195,-4.5457 4.278,-8.0894 -0.061,-0.9033 -0.8608,-1.5868 -1.7479,-1.5243 -0.904,0.062 -1.5867,0.8439 -1.5242,1.7472 0.1495,2.2023 -0.8,4.0929 -2.4769,4.9361 -1.5768,0.7914 -3.4458,0.4643 -5.0032,-0.8702 -2.885,-2.473 -2.6991,-6.9462 -1.0599,-9.8991 0,-0.01 0.012,-0.017 0.012,-0.026 0.6689,-1.2118 1.5844,-2.2061 2.6505,-2.8749 4.4185,-2.7739 11.2868,-0.8624 14.2451,2.6327 3.6016,4.2526 2.4437,9.9562 1.329,12.37761 l -0.7412,1.60909 1.6599,0.6148 c 8.002498,2.9659 8.568598,11.77271 9.022998,18.84941 0.2506,3.9009 0.4489,6.98249 1.8946,8.7012 1.8735,2.23239 5.2537,3.63239 8.8183,3.6525 1.7942,0.02 3.4896,-0.3333 4.9099,-0.98051" />
  </g>
</svg>
