<?xml version="1.0" encoding="UTF-8" standalone="no"?>
<svg
   xmlns:dc="http://purl.org/dc/elements/1.1/"
   xmlns:cc="http://creativecommons.org/ns#"
   xmlns:rdf="http://www.w3.org/1999/02/22-rdf-syntax-ns#"
   xmlns:svg="http://www.w3.org/2000/svg"
   xmlns="http://www.w3.org/2000/svg"
   id="svg3505"
   version="1.1"
   viewBox="0 0 125 88"
   height="88mm"
   width="125mm">
  <defs
     id="defs3499" />
  <metadata
     id="metadata3502">
    <rdf:RDF>
      <cc:Work
         rdf:about="">
        <dc:format>image/svg+xml</dc:format>
        <dc:type
           rdf:resource="http://purl.org/dc/dcmitype/StillImage" />
        <dc:title></dc:title>
      </cc:Work>
    </rdf:RDF>
  </metadata>
  <g
     transform="translate(0,-209)"
     id="layer1">
    <path
       id="path2185"
       style="fill:#ffffff;fill-opacity:1;fill-rule:nonzero;stroke:none;stroke-width:0.77138036"
       d="m 14.270008,250.10972 3.0839,1.2689 -2.8879,1.6678 c -3.2492,1.876 -5.6697997,5.3734 -6.6408997,9.5952 -1.0638,4.6298 -0.2554,9.5281 2.1652,13.1042 4.8219997,7.1445 15.5911997,8.1944 22.8050997,5.0679 l 0.047,-0.022 c 0.3765,-0.1559 0.7745,-0.3448 1.2527,-0.5962 6.1217,-3.2445 9.785,-9.9246 8.7074,-15.8828 -0.5261,-2.9081 -2.3265,-5.3958 -4.9399,-6.8252 -2.554,-1.3977 -5.5393,-1.5736 -8.1882,-0.4821 -2.8526,1.1741 -4.744,3.6217 -4.8181,6.2359 -0.059,2.0781 1.0708,3.7805 3.1827,4.7933 0.817,0.3919 1.161,1.3715 0.7699,2.1884 -0.3926,0.8154 -1.3731,1.161 -2.1885,0.7691 -3.2528,-1.5613 -5.138,-4.4925 -5.0432,-7.8441 0.1117,-3.9079 2.8001,-7.5095 6.8491,-9.1748 3.5692,-1.4703 7.5827,-1.2381 11.0099,0.6363 3.4866,1.9077 5.8903,5.2315 6.5937,9.1193 1.2791,7.0705 -2.7614,14.893 -9.6554,18.9335 3.2668,2.3512 7.6815,3.4427 12.0422,2.8804 4.4415,-0.5739 8.0793,-2.8086 9.9808,-6.1294 l 1.0868,-1.9007 1.5181,1.5782 c 3.0656,3.1866 9.5574,4.3097 14.1742,2.4538 4.4269,-1.7788 7.1977,-4.6082 9.8836,-10.092 l 1.2868,-2.6257 1.5697,2.4668 c 1.5829,2.4869 7.6443,4.7641 12.008,4.5265 4.501002,-0.2561 8.712902,-2.4546 11.857002,-6.1903 3.0261,-3.5954 4.6892,-8.1289 4.8234,-13.0248 -3.5438,2.7099 -7.5835,3.5831 -11.8515,2.5286 -4.1415,-1.0213 -5.400402,-4.3969 -6.511202,-7.3744 -1.002,-2.6891 -1.9493,-5.2284 -4.7918,-6.691 -4.5852,-2.3534 -9.0954,0.3047 -9.1409,0.3317 l -2.5001,1.5081 0.013,-2.9205 c 0.012,-1.4702 -0.2035,-5.7228 -1.2412,-7.7107 -1.7733,-3.3933 -5.0555,-5.7391 -9.0057,-6.4348 -3.6317,-0.6411 -7.2418,0.2931 -9.6546,2.4977 l -2.2201,2.028 -0.503,-2.9645 c -0.90089,-5.30481 -4.63969,-8.91711 -10.52699,-10.17141 -5.5794,-1.1879 -12.794,1.0383 -15.2078,6.8259 l -1.3159,3.1558 -1.6377,-3.0015 c -1.7517,-3.2128 -4.7085,-4.0775 -6.8799,-4.2372 -4.7687,-0.3517 -10.5695,2.3034 -13.4891,6.1749 -2.5385997,3.3663 -3.3940997,8.0949 -2.2323997,12.3406 0.9943,3.6332 3.2528997,6.3392 6.3606997,7.6181" />
  </g>
</svg>
