<?xml version="1.0" encoding="UTF-8" standalone="no"?>
<svg
   xmlns:dc="http://purl.org/dc/elements/1.1/"
   xmlns:cc="http://creativecommons.org/ns#"
   xmlns:rdf="http://www.w3.org/1999/02/22-rdf-syntax-ns#"
   xmlns:svg="http://www.w3.org/2000/svg"
   xmlns="http://www.w3.org/2000/svg"
   id="svg3505"
   version="1.1"
   viewBox="0 0 125 88"
   height="88mm"
   width="125mm">
  <defs
     id="defs3499" />
  <metadata
     id="metadata3502">
    <rdf:RDF>
      <cc:Work
         rdf:about="">
        <dc:format>image/svg+xml</dc:format>
        <dc:type
           rdf:resource="http://purl.org/dc/dcmitype/StillImage" />
        <dc:title></dc:title>
      </cc:Work>
    </rdf:RDF>
  </metadata>
  <g
     transform="translate(0,-209)"
     id="layer1">
    <path
       id="path2187"
       style="fill:#ffffff;fill-opacity:1;fill-rule:nonzero;stroke:none;stroke-width:0.77138036"
       d="m 20.416382,250.05867 c 0.1129,-2.1614 1.5991,-5.6835 4.5991,-8.31 1.6614,-1.4556 4.3852,-3.1334 7.9096,-2.8456 l 1.964,0.1589 -0.2006,-1.9608 c -0.2977,-2.8996 0.7569,-5.8247 2.8935,-8.0239 2.5857,-2.6651 6.4936,-3.9518 10.9923,-3.6255 5.243,0.3803 9.9623,3.1742 12.6243,7.4731 l 0.9519,1.5358 1.4371,-1.0946 c 3.6941,-2.8155 8.5183,-3.5599 10.5524,-3.5599 h 0.015 c 5.051,0 11.0546,3.0724 12.3205,9.8235 l 0.1288,0.6881 0.035,0.023 c 0.1904,1.3144 0.07,4.1963 -1.32451,6.5521 -1.08449,1.8321 -2.74059,2.9583 -4.91989,3.3478 -1.37541,0.2461 -4.6845,0.4582 -5.8169,-2.9104 -0.3502,-1.0414 -0.418,-2.0913 -0.18521,-2.8834 0.21671,-0.7414 0.67661,-1.2204 1.40541,-1.4664 0.8578,-0.2885 1.32059,-1.218 1.0314,-2.0766 -0.2877,-0.8578 -1.2188,-1.3214 -2.07741,-1.0313 -1.74319,0.5862 -2.98899,1.8829 -3.50749,3.6517 -0.4227,1.4417 -0.3432,3.165 0.2245,4.8504 1.31059,3.9024 4.5064,5.2678 7.5797,5.2686 0.6533,0 1.3012,-0.062 1.9246,-0.1743 3.1148,-0.5554 5.5924,-2.2524 7.1638,-4.9052 1.3892,-2.3481 1.8351,-5.0495 1.83349,-7.1067 1.36311,0.083 3.2282,-0.1166 5.62111,-1.0576 2.1629,-0.847 4.873598,-2.5224 6.914598,-4.4108 1.0622,5.4961 0.3966,12.0552 -7.598098,18.3666 l -1.137,0.8987 0.7505,1.2396 c 1.3585,2.2393 1.9809,4.4069 1.8499,6.441 -0.2199,3.3239 -2.568,6.4148 -5.7098,7.514 -3.1442,1.09 -6.90541,0.1319 -9.1432,-2.3319 l -2.3457,-2.5833 -0.49221,3.4542 c -0.7112,4.9939 -3.83769,8.8084 -8.3634,10.2046 -5.1929,1.6014 -10.1991,0.2569 -13.39569,-3.6054 l -1.45261,-1.7557 -1.20319,1.9346 c -1.2134,1.9516 -3.89781,2.9791 -6.1117,2.3381 -1.9277,-0.5631 -3.9572,-2.1946 -4.3151,-4.2395 2.2616,-2.1406 3.43029,-5.3225 3.13179,-8.6703 -0.41499,-4.5365 -4.13769,-7.0551 -7.60109,-7.2009 -3.3363,-0.1381 -5.9043,1.8521 -6.4542,4.9538 -0.1574,0.8917 0.4374,1.7434 1.3291,1.9015 0.8886,0.1511 1.7433,-0.4366 1.9014,-1.3291 0.3772,-2.1305 2.2763,-2.2848 3.0863,-2.2493 2.038,0.086 4.2287,1.5628 4.4724,4.2186 0.226,2.5502 -0.7389,4.9407 -2.5818,6.3909 -0.3139,0.2561 -0.6332,0.4682 -0.9974,0.6665 -3.5143,1.9068 -7.2093,1.9431 -10.132,0.098 -3.2174,-2.0311 -4.9924,-6.0299 -4.7479,-10.6983 l 0.044,-0.847 -0.6664,-0.5261 c -2.85791,-2.2555 -4.43011,-6.1864 -4.20631,-10.5139" />
  </g>
</svg>
