<?xml version="1.0" encoding="UTF-8" standalone="no"?>
<svg
   xmlns:dc="http://purl.org/dc/elements/1.1/"
   xmlns:cc="http://creativecommons.org/ns#"
   xmlns:rdf="http://www.w3.org/1999/02/22-rdf-syntax-ns#"
   xmlns:svg="http://www.w3.org/2000/svg"
   xmlns="http://www.w3.org/2000/svg"
   id="svg3505"
   version="1.1"
   viewBox="0 0 125 88"
   height="88mm"
   width="125mm">
  <defs
     id="defs3499" />
  <metadata
     id="metadata3502">
    <rdf:RDF>
      <cc:Work
         rdf:about="">
        <dc:format>image/svg+xml</dc:format>
        <dc:type
           rdf:resource="http://purl.org/dc/dcmitype/StillImage" />
        <dc:title></dc:title>
      </cc:Work>
    </rdf:RDF>
  </metadata>
  <g
     transform="translate(0,-209)"
     id="layer1">
    <path
       id="path2191"
       style="fill:#ffffff;fill-opacity:1;fill-rule:nonzero;stroke:none;stroke-width:0.77138036"
       d="m 98.705,271.15241 c 1.233501,-9.4981 13.0518,-14.1225 21.6681,-16.2461 -6.1386,-5.0857 -17.7556,-5.918 -22.066099,-3.1596 l -2.7138,1.7372 0.193001,-3.2167 c 0.328498,-5.4714 -0.8177,-9.8706 -3.315401,-12.7224 -2.324201,-2.6581 -5.4869,-4.5603 -8.6873,-5.2816 -1.0013,4.042 -3.581599,6.1054 -5.702001,7.1391 -3.722699,1.8143 -8.222999,1.5243 -10.425298,0.1935 -3.434202,-2.1259 -5.102701,-5.3572 -4.5935,-8.8739 0.293798,-2.0727 1.588198,-4.0158 3.4603,-5.1914 1.686197,-1.0607 3.5692,-1.3399 5.3017,-0.7876 0.863197,0.2739 1.3399,1.1972 1.0654,2.0604 -0.274701,0.8624 -1.198801,1.3376 -2.0604,1.0645 -1.0761,-0.3418 -2.066603,0.1288 -2.561802,0.4397 -1.049898,0.6587 -1.799598,1.7618 -1.958599,2.8803 -0.408001,2.8201 1.437899,4.6067 3.0578,5.6103 1.0444,0.6309 4.3869,1.0652 7.277301,-0.3433 2.341798,-1.1417 3.728799,-3.1596 4.143798,-5.9844 0,-0.034 -0.01198,-0.066 -0.01198,-0.1 0,-0.1642 0.031,-0.3201 0.074,-0.4698 0.1851,-1.869 -0.024,-4.0435 -0.649499,-6.4911 -1.121701,-4.4123 -5.105101,-8.0594 -10.149099,-9.2921 -6.117802,-1.4949 -12.352901,0.702 -17.106101,6.0284 l -1.0908,1.2218 -1.223399,-1.0876 c -4.081415,-3.6309 -10.192314,-4.9176 -15.210015,-3.1997 -5.0626,1.7333 -9.1232,6.4356 -10.1044,11.7003 l -0.4906,2.6335 -2.1221,-1.6346 c -3.0954,-2.3843 -9.3437,-2.0989 -13.3726,0.6087 -3.7343,2.5139 -4.6915,6.7465 -4.9291,9.0467 -0.3024,2.9274 0.1936,5.7221 0.985,7.5518 3.0046,-3.0138 7.4655,-4.4917 11.573,-3.6525 5.1961,1.0568 8.378,4.5026 8.7274,9.4526 0.2198,3.0314 -1.2126,6.0931 -3.6478,7.7955 -2.3065,1.6122 -5.1398,1.795 -7.9792,0.5184 -0.8254,-0.3718 -1.1941,-1.3422 -0.8222,-2.1684 0.371,-0.8261 1.3414,-1.1964 2.1675,-0.8223 1.7711,0.7969 3.4149,0.7213 4.7541,-0.2151 1.4856,-1.0391 2.3919,-2.9976 2.2562,-4.8744 -0.3093,-4.3861 -3.4943,-5.9404 -6.1117,-6.4726 -3.6077,-0.7352 -7.6088,0.9557 -9.7271,4.1191 -4.2718,6.3678 -2.0896,15.4794 2.3821,20.2704 3.8515,4.1207 9.8081,6.033 15.1762,4.8682 l 1.8257,-0.3949 0.1567,1.8605 c 0.4335,5.1552 2.8356,8.6094 7.558801,10.8688 4.0674,1.9578 9.9554,0.1974 14.1116,-2.0997 l 1.298199,-0.7182 0.8431,1.2196 c 3.947102,5.7028 8.8963,7.8202 16.0532,6.8684 5.349502,-0.7159 10.260901,-5.3488 11.677901,-11.0146 l 0.478401,-1.913 1.7941,0.8192 c 6.4789,2.9621 10.6236,1.6168 12.959199,-0.033 3.0554,-2.1529 5.279401,-6.0283 5.807001,-10.1166" />
  </g>
</svg>
