<?xml version="1.0" encoding="UTF-8" standalone="no"?>
<svg
   xmlns:dc="http://purl.org/dc/elements/1.1/"
   xmlns:cc="http://creativecommons.org/ns#"
   xmlns:rdf="http://www.w3.org/1999/02/22-rdf-syntax-ns#"
   xmlns:svg="http://www.w3.org/2000/svg"
   xmlns="http://www.w3.org/2000/svg"
   id="svg1360"
   version="1.1"
   viewBox="0 0 90 90"
   height="90mm"
   width="90mm">
  <defs
     id="defs1354" />
  <metadata
     id="metadata1357">
    <rdf:RDF>
      <cc:Work
         rdf:about="">
        <dc:format>image/svg+xml</dc:format>
        <dc:type
           rdf:resource="http://purl.org/dc/dcmitype/StillImage" />
        <dc:title></dc:title>
      </cc:Work>
    </rdf:RDF>
  </metadata>
  <g
     transform="translate(0,-207)"
     id="layer1">
    <g
       id="g1341"
       transform="translate(544.02254,3083.38)">
      <circle
         style="opacity:1;fill:#ffffff;fill-opacity:1;fill-rule:nonzero;stroke:#333132;stroke-width:8;stroke-linecap:square;stroke-linejoin:round;stroke-miterlimit:4;stroke-dasharray:none;stroke-dashoffset:2.99514937;stroke-opacity:1"
         id="path4330-6"
         cx="-1214.8027"
         cy="-2605.5876"
         r="40.616802"
         transform="rotate(15)" />
      <path
         id="path1335"
         style="font-style:normal;font-variant:normal;font-weight:bold;font-stretch:normal;font-size:66.79251862px;line-height:1.25;font-family:YasashisaGothicBoldV2;-inkscape-font-specification:'YasashisaGothicBoldV2, Bold';font-variant-ligatures:normal;font-variant-caps:normal;font-variant-numeric:normal;font-feature-settings:normal;text-align:start;letter-spacing:0px;word-spacing:0px;writing-mode:lr-tb;text-anchor:start;fill:#333132;fill-opacity:1;stroke:none;stroke-width:8;stroke-miterlimit:4;stroke-dasharray:none;stroke-opacity:1"
         d="m -504.17167,-2842.0708 -0.46425,-0.3318 0.0957,-0.8733 3.52659,-13.1614 c 0.15558,-0.5806 -0.12773,-1.0715 -0.70845,-1.2271 l -7.35485,-1.9707 c 0.4969,-1.5956 0.94154,-2.9977 1.25271,-4.159 0.15558,-0.5806 -0.12783,-1.0715 -0.70845,-1.2271 l -5.87099,-1.5731 c -0.58072,-0.1556 -1.0715,0.1278 -1.22707,0.7084 -0.51862,1.9356 -0.88164,3.2904 -1.18838,4.1763 l -4.32262,-1.1583 c -0.58071,-0.1556 -1.07149,0.1279 -1.22707,0.7085 l -1.27924,4.7742 c -0.1556,0.5807 0.12774,1.0714 0.70845,1.227 l 3.80643,1.02 c -2.02351,4.7131 -3.98799,6.8836 -8.7487,8.6504 -0.4735,0.2189 -0.80535,0.6831 -0.66828,1.204 l 1.15387,6.5325 c 0.0897,0.439 0.36052,0.7189 0.68314,0.8053 0.19347,0.052 0.46891,0.056 0.69698,-0.021 7.97168,-2.9119 11.56084,-7.2746 14.6895,-15.0799 l 1.93552,0.5186 -2.1609,8.0647 c -0.5532,2.0645 -0.82175,3.583 -0.8702,4.5381 l -5.03228,-1.3484 c -0.58072,-0.1556 -1.07147,0.1277 -1.22707,0.7084 l -1.50398,5.6129 -8.3227,-2.23 c -0.58062,-0.1556 -1.0715,0.1278 -1.22707,0.7084 l -1.29653,4.8387 c -0.1556,0.5807 0.12783,1.0715 0.70845,1.2271 l 6.83875,1.8324 c -3.11437,3.107 -6.95116,5.813 -11.49289,8.0535 -0.53811,0.2016 -0.75821,0.7649 -0.55662,1.303 l 1.88668,5.3459 c 0.10712,0.3744 0.33064,0.5726 0.65316,0.6591 1.22586,0.3284 7.75067,-5.1838 8.85333,-6.2023 l -2.88697,10.7744 c -0.15558,0.5806 0.12783,1.0715 0.70845,1.227 l 5.87109,1.5732 c 0.58062,0.1556 1.0714,-0.1279 1.22697,-0.7085 l 3.2327,-12.0646 c 1.41693,2.4541 2.64489,4.5809 3.61946,6.3634 0.12432,0.31 0.41239,0.5254 0.67048,0.5945 0.258,0.069 0.55065,0.01 0.81338,-0.1969 l 4.06948,-3.0585 c 0.44361,-0.3652 0.58193,-0.8814 0.2983,-1.3722 -2.44788,-3.7676 -4.5652,-6.9626 -6.45096,-9.4732 l 6.64528,1.7806 c 0.58062,0.1556 1.07137,-0.1278 1.22697,-0.7085 l 1.29653,-4.8387 c 0.15558,-0.5806 -0.12774,-1.0715 -0.70835,-1.2271 l -7.484,-2.0053 1.0718,-4 c 0.6578,0.3837 1.72005,0.8066 3.33296,1.2388 2.00004,0.5359 3.45393,0.7872 4.44361,0.7066 0.98968,-0.081 1.8895,-0.6001 2.65235,-1.6404 l 0.3997,0.3146 -8.73002,32.5809 c -0.1556,0.5807 0.12783,1.0715 0.70845,1.227 l 6.25814,1.6769 c 0.58062,0.1556 1.07147,-0.1277 1.22707,-0.7085 l 0.63962,-2.387 21.80665,5.843 c 0.58061,0.1556 1.07137,-0.1277 1.22697,-0.7085 l 1.26195,-4.7096 c 0.1556,-0.5807 -0.12773,-1.0715 -0.70835,-1.2271 l -7.29042,-1.9534 1.90159,-7.0969 5.93552,1.5904 c 0.58062,0.1556 1.07147,-0.1277 1.22707,-0.7084 l 1.17553,-4.3871 c 0.15558,-0.5807 -0.12783,-1.0715 -0.70845,-1.2271 l -5.93552,-1.5904 1.86699,-6.9677 5.93552,1.5904 c 0.58062,0.1556 1.0715,-0.1279 1.22707,-0.7085 l 1.17553,-4.3871 c 0.15561,-0.5807 -0.12783,-1.0715 -0.70845,-1.2271 l -5.93551,-1.5904 1.83243,-6.8388 6.77424,1.8152 c 0.58061,0.1556 1.07149,-0.1278 1.22707,-0.7085 l 1.31381,-4.9032 c 0.15561,-0.5807 -0.12783,-1.0715 -0.70845,-1.2271 l -5.54837,-1.4866 c 1.22829,-1.7454 2.46118,-3.7661 3.71602,-6.1267 0.30192,-0.6106 0.11768,-1.2131 -0.51027,-1.4505 l -5.2937,-2.1791 c -0.58071,-0.1556 -1.0196,-0.066 -1.30425,0.4803 -1.35392,2.4723 -2.81959,4.8456 -4.41432,7.1842 l -6.64528,-1.7806 c 1.34929,-2.1969 2.50049,-4.1704 3.48797,-6.0495 0.34915,-0.5287 0.10039,-1.1485 -0.52756,-1.3859 l -5.56445,-2.4591 c -0.51609,-0.1383 -1.03689,0 -1.30425,0.4803 -2.02227,3.6762 -4.15159,6.9779 -6.32361,9.9225 l -3.02299,-1.3631 c -0.70967,-0.1902 -1.19592,-0.1822 -1.42065,0.6565 -0.65691,2.4517 -1.39582,4.9505 -2.24601,7.3503 l -0.58656,1.1567 z m 21.92123,0 -1.83244,6.8387 -6.9678,-1.867 1.83244,-6.8388 z m -3.52659,13.1614 -1.86699,6.9677 -6.9678,-1.867 1.86699,-6.9677 z m -10.52895,11.4233 6.96781,1.867 -1.9016,7.0969 -6.9678,-1.867 z" />
    </g>
  </g>
</svg>
