<?xml version="1.0" encoding="UTF-8" standalone="no"?>
<svg
   xmlns:dc="http://purl.org/dc/elements/1.1/"
   xmlns:cc="http://creativecommons.org/ns#"
   xmlns:rdf="http://www.w3.org/1999/02/22-rdf-syntax-ns#"
   xmlns:svg="http://www.w3.org/2000/svg"
   xmlns="http://www.w3.org/2000/svg"
   id="svg1364"
   version="1.1"
   viewBox="0 0 90 90"
   height="90mm"
   width="90mm">
  <defs
     id="defs1358" />
  <metadata
     id="metadata1361">
    <rdf:RDF>
      <cc:Work
         rdf:about="">
        <dc:format>image/svg+xml</dc:format>
        <dc:type
           rdf:resource="http://purl.org/dc/dcmitype/StillImage" />
        <dc:title></dc:title>
      </cc:Work>
    </rdf:RDF>
  </metadata>
  <g
     transform="translate(0,-207)"
     id="layer1">
    <g
       id="g1344"
       transform="translate(691.62875,3052.3986)">
      <g
         aria-label="雑"
         transform="rotate(15)"
         style="font-style:normal;font-variant:normal;font-weight:normal;font-stretch:normal;font-size:23.8544693px;line-height:1.25;font-family:sans-serif;-inkscape-font-specification:'sans-serif, Normal';font-variant-ligatures:normal;font-variant-caps:normal;font-variant-numeric:normal;font-feature-settings:normal;text-align:start;letter-spacing:0px;word-spacing:0px;writing-mode:lr-tb;text-anchor:start;fill:#ffffff;fill-opacity:1;stroke:none;stroke-width:8;stroke-miterlimit:4;stroke-dasharray:none"
         id="text4328">
        <path
           d="m -1357.2048,-2546.6442 -0.5344,-0.2003 -0.1336,-0.8683 v -13.6257 c 0,-0.6012 -0.4007,-1.0019 -1.0018,-1.0019 h -7.6144 c 0.067,-1.6698 0.1336,-3.1393 0.1336,-4.3415 0,-0.6012 -0.4008,-1.0019 -1.0019,-1.0019 h -6.0781 c -0.6011,0 -1.0019,0.4007 -1.0019,1.0019 0,2.0038 0,3.4064 -0.067,4.3415 h -4.4751 c -0.6011,0 -1.0019,0.4007 -1.0019,1.0019 v 4.9426 c 0,0.6012 0.4008,1.0019 1.0019,1.0019 h 3.9408 c -0.7347,5.0762 -2.0706,7.6812 -6.2117,10.62 -0.4008,0.334 -0.6012,0.8683 -0.334,1.3359 l 2.8053,6.0113 c 0.2004,0.4008 0.5343,0.6011 0.8683,0.6011 0.2004,0 0.4675,-0.067 0.6679,-0.2003 6.9464,-4.8759 9.2842,-10.0189 10.2861,-18.368 h 2.0037 v 8.3491 c 0,2.1373 0.1336,3.6736 0.334,4.6087 h -5.2098 c -0.6011,0 -1.0019,0.4007 -1.0019,1.0019 v 5.8109 h -8.6162 c -0.6012,0 -1.0019,0.4008 -1.0019,1.0019 v 5.0094 c 0,0.6012 0.4007,1.0019 1.0019,1.0019 h 7.08 c -2.2042,3.8072 -5.2098,7.414 -9.017,10.7536 -0.4676,0.334 -0.5344,0.9351 -0.2004,1.4027 l 3.206,4.6754 c 0.2004,0.334 0.4676,0.4676 0.8016,0.4676 1.269,0 6.1449,-7.0132 6.9464,-8.2823 v 11.1544 c 0,0.6011 0.4007,1.0018 1.0019,1.0018 h 6.0781 c 0.6011,0 1.0019,-0.4007 1.0019,-1.0018 v -12.4902 c 2.0037,2.0037 3.7404,3.7403 5.143,5.2098 0.2004,0.2671 0.5343,0.4007 0.8015,0.4007 0.2672,0 0.5343,-0.1336 0.7347,-0.4007 l 3.1393,-4.0076 c 0.3339,-0.4675 0.3339,-1.0019 -0.067,-1.4026 -3.3396,-3.0057 -6.2117,-5.5438 -8.683,-7.4808 h 6.8796 c 0.6011,0 1.0019,-0.4007 1.0019,-1.0019 v -5.0094 c 0,-0.6011 -0.4008,-1.0019 -1.0019,-1.0019 h -7.748 v -4.1411 c 0.7348,0.2003 1.8702,0.3339 3.5401,0.3339 2.0705,0 3.54,-0.1336 4.4751,-0.4675 0.935,-0.334 1.6698,-1.0687 2.1373,-2.271 l 0.4676,0.2004 v 33.7302 c 0,0.6012 0.4007,1.0019 1.0018,1.0019 h 6.4789 c 0.6012,0 1.0019,-0.4007 1.0019,-1.0019 v -2.4713 h 22.5759 c 0.6011,0 1.0019,-0.4007 1.0019,-1.0019 v -4.8758 c 0,-0.6012 -0.4008,-1.0019 -1.0019,-1.0019 h -7.5476 v -7.3472 h 6.1449 c 0.6012,0 1.0019,-0.4008 1.0019,-1.0019 v -4.5419 c 0,-0.6011 -0.4007,-1.0019 -1.0019,-1.0019 h -6.1449 v -7.2136 h 6.1449 c 0.6012,0 1.0019,-0.4007 1.0019,-1.0018 v -4.5419 c 0,-0.6012 -0.4007,-1.0019 -1.0019,-1.0019 h -6.1449 v -7.08 h 7.0132 c 0.6012,0 1.0019,-0.4008 1.0019,-1.0019 v -5.0762 c 0,-0.6012 -0.4007,-1.0019 -1.0019,-1.0019 h -5.7441 c 0.7347,-2.0038 1.4026,-4.2748 2.0038,-6.8797 0.1335,-0.6679 -0.2004,-1.2022 -0.8683,-1.269 l -5.6774,-0.7347 c -0.6011,0 -1.0019,0.2003 -1.1355,0.8015 -0.6679,2.7385 -1.4694,5.4102 -2.4045,8.0819 h -6.8796 c 0.7347,-2.4714 1.3358,-4.6755 1.8034,-6.7461 0.2003,-0.6011 -0.2004,-1.1355 -0.8683,-1.2022 l -6.0114,-0.9351 c -0.5343,0 -1.0019,0.2671 -1.1354,0.8015 -1.0019,4.0743 -2.2042,7.8147 -3.54,11.2211 l -3.2729,-0.5343 c -0.7347,0 -1.2022,0.1336 -1.2022,1.0019 0,2.5381 -0.067,5.143 -0.2672,7.6811 l -0.2672,1.2691 z m 21.1732,-5.6773 v 7.08 h -7.2136 v -7.08 z m 0,13.6256 v 7.2136 h -7.2136 v -7.2136 z m -7.2136,13.7593 h 7.2136 v 7.3472 h -7.2136 z"
           style="font-style:normal;font-variant:normal;font-weight:bold;font-stretch:normal;font-size:66.79251862px;font-family:YasashisaGothicBoldV2;-inkscape-font-specification:'YasashisaGothicBoldV2, Bold';font-variant-ligatures:normal;font-variant-caps:normal;font-variant-numeric:normal;font-feature-settings:normal;text-align:start;writing-mode:lr-tb;text-anchor:start;fill:#ffffff;stroke-width:8;stroke-miterlimit:4;stroke-dasharray:none"
           id="path1338" />
      </g>
      <circle
         style="opacity:1;fill:none;fill-opacity:0.06763288;fill-rule:nonzero;stroke:#ffffff;stroke-width:8;stroke-linecap:square;stroke-linejoin:round;stroke-miterlimit:4;stroke-dasharray:none;stroke-dashoffset:2.99514937;stroke-opacity:1"
         id="path4330"
         cx="-1349.4331"
         cy="-2537.4912"
         r="40.616802"
         transform="rotate(15)" />
    </g>
  </g>
</svg>
